<svg version="1.2" xmlns="http://www.w3.org/2000/svg" viewBox="0 0 233 318" width="233" height="318">
	<title>impicture-91921c42bf647016e536f7fc0e59b2bd-svg</title>
	<style>
		.s0 { fill: #a92025 } 
		.s1 { fill: #d71618 } 
		.s2 { fill: #f2e79f } 
		.s3 { fill: #ffffff } 
	</style>
	<g id="Layer">
		<g id="Layer">
			<path id="Layer" class="s0" d="m148.5 96.5h-59.8l-9.7-12.6c0 0-3.2-6.8-6.9-14.9c14.5 4.2 35.9 5.4 58.1-2.6c23.2-8.4 30.5-30.7 32.8-42.3c9.1 1.6 15.3 11 11.9 21.3c-3.5 10.7-16.6 38.5-16.6 38.5z" />
			<path id="Layer" class="s1" d="m181.9 260.5c-20.9 15.7-46.2 18.7-81.4 18.1c-30.4-0.4-61.7-4.4-81.6-15.1q-1.5-3.9-2.5-8.2c-9.4-39.9-6.4-92.2 17.6-118.3c23.9-26.1 49.4-38.5 55.5-39.6l-0.8-0.9h59.8l-0.7 0.9c4.1 0.8 17.2 6.7 32.7 18.7c9.9 13.6 22.7 36.4 22.9 63.6c0.2 44.5-0.6 65.1-21.5 80.8z" />
		</g>
		<path id="Layer" class="s2" d="m165.3 111.3c6.9 12.5 13.8 34.6 7 68.4l-6.5-1.3c9.8-48.8-10.8-71.3-14.3-74.7h-76.7c-3.3 0-6-2.7-6-6c0-3.3 2.7-6 6-6c-3.3 0-6-2.7-6-6c0-3.3 2.7-6 6-6h87.3c3.3 0 6 2.7 6 6c0 3.3-2.7 6-6 6c3.3 0 6 2.7 6 6c0 2.2-1.3 4.2-3.1 5.2c27.1 17.4 36.7 61.3 37.2 63.4l-6.5 1.4c-0.1-0.5-8.5-38.8-30.4-56.4z" />
		<g id="Layer">
			<path id="Layer" class="s1" d="m72.1 69c-3.7-8.3-8-18.2-9.7-23.6c-3.5-10.7 3.3-20.5 12.9-21.5c9.6-1 19.1-1.7 22.1-3.9c2.9-2.2 12.4-12.5 21.2-12.5c8.8 0 18.4 10.3 21.3 12.5c2.9 2.2 12.5 2.9 22.1 3.9q0.5 0.1 1 0.2c-2.3 11.6-9.6 33.9-32.8 42.3c-22.2 8-43.6 6.9-58.1 2.6z" />
			<path id="Layer" class="s0" d="m220.9 255.2c-9.3 39.9-47 52-102.3 52c-51.2 0-87.3-10.4-99.7-43.7c19.9 10.7 51.2 14.6 81.6 15.1c35.2 0.6 60.5-2.5 81.4-18.1c20.9-15.7 21.7-36.3 21.5-80.8c-0.2-27.2-13-50.1-22.9-63.6c7.3 5.6 15.2 12.6 22.8 20.9c23.9 26.1 27 78.4 17.6 118.2z" />
		</g>
	</g>
	<path id="Layer" fill-rule="evenodd" class="s3" d="m121.9 63.4v6.4h-4.9v-6.2c-12.3-1.1-13.8-14-13.8-14l8.6-1.1c0.6 1.8 2.1 5.9 5.2 7.3v-13.7q-0.7-0.2-1.5-0.5c-8.2-2.5-11.5-7.8-11.5-14c0-5.8 2.7-13.4 13-14.5v-3h4.9v3.1c10.2 1.5 12.1 11.9 12.1 11.9l-8 1.3c-0.2-1.1-1.6-4-4.1-5.3v12.9q1.2 0.4 2.6 0.9c8.2 2.5 10.9 7.4 10.9 13.5c0 5.6-2.5 13.7-13.5 15zm-4.9-31.3v-11.3c-2.5 0.7-3.9 2.7-3.9 5.9c0 2.5 1.2 4 3.9 5.4zm10.2 17.7c0-3.1-1.6-4.6-5.3-6v12.4c3.4-0.7 5.3-2.7 5.3-6.4z" />
</svg>