<?xml version="1.0" encoding="UTF-8" standalone="no"?> <!-- Created with Vectornator for iOS (http://vectornator.io/) --><!DOCTYPE svg PUBLIC "-//W3C//DTD SVG 1.1//EN" "http://www.w3.org/Graphics/SVG/1.1/DTD/svg11.dtd">
<svg xmlns="http://www.w3.org/2000/svg" xml:space="preserve" version="1.1" style="fill-rule:nonzero;clip-rule:evenodd;stroke-linecap:round;stroke-linejoin:round;" xmlns:vectornator="http://vectornator.io" height="100%" width="100%" xmlns:xlink="http://www.w3.org/1999/xlink" viewBox="0 0 595.279 841.89">
<metadata>
<vectornator:setting key="VNDimensionsVisible" value="true"/>
<vectornator:setting key="WDIsolateActiveLayer" value="false"/>
<vectornator:setting value="Points" key="WDUnits"/>
<vectornator:setting key="WDCMYKEnabledKey" value="false"/>
<vectornator:setting value="false" key="WDSnapToGrid"/>
<vectornator:setting value="false" key="WDOutlineMode"/>
<vectornator:setting value="false" key="WDDynamicGuides"/>
<vectornator:setting key="WDSnapToPoints" value="false"/>
<vectornator:setting value="true" key="UndoHistoryDisabled"/>
<vectornator:setting value="true" key="VNSnapToGuides"/>
<vectornator:setting key="WDRulersVisible" value="true"/>
<vectornator:setting key="IsTimeLapseWatermarkDisabled" value="false"/>
<vectornator:setting key="WDSnapToEdges" value="false"/>
<vectornator:setting value="false" key="WDDisplayWhiteBackground"/>
<vectornator:setting value="true" key="WDGuidesVisible"/>
</metadata>
<defs/>
<g vectornator:layerName="Untitled" id="Untitled">
<path d="M404.38+215.785C404.38+215.785+440.46+137.857+450.04+107.767C459.278+78.7784+442.269+52.4863+417.328+48.0621C411.02+80.5744+390.776+143.134+327.017+166.661C265.872+189.224+206.96+185.969+167.087+174.103C177.116+196.882+185.869+215.79+185.869+215.79L212.783+251.099L377.451+251.099L404.38+215.785Z" opacity="1" fill="#0ba181"/>
<path d="M528.359+484.821C527.894+408.273+492.662+344.26+465.499+306.186C422.826+272.678+386.674+255.95+375.359+253.849L377.451+251.1L212.784+251.1L214.881+253.849C198.223+256.941+127.83+291.66+61.9838+364.958C-3.86253+438.257-12.1863+584.855+13.5446+696.738C15.4202+704.881+17.7504+712.565+20.4372+719.897C75.4642+749.828+161.487+760.989+245.268+762.342C342.156+763.869+411.785+755.39+469.313+711.406C526.835+667.433+529.114+609.54+528.359+484.821" fill="#0bb981" opacity="1"/>
<path fill="#ffff00" d="M507.354+450.98L525.128+447.13C523.919+441.305+497.418+318.14+422.674+269.232C427.763+266.361+431.22+260.842+431.22+254.49C431.22+245.183+423.811+237.647+414.691+237.647C423.816+237.647+431.22+230.099+431.22+220.803C431.22+211.502+423.811+203.96+414.691+203.96L174.49+203.96C165.36+203.96+157.966+211.502+157.966+220.803C157.966+230.099+165.37+237.647+174.49+237.647C165.36+237.647+157.966+245.194+157.966+254.49C157.966+263.791+165.37+271.333+174.49+271.333L385.468+271.333C395.259+281.008+451.96+344.079+425.087+481.186L442.897+484.814C461.544+389.727+442.665+327.889+423.501+292.685C483.943+342.278+507.095+449.711+507.354+450.98" opacity="1"/>
<path d="M327.013+166.655C390.767+143.123+411.016+80.5684+417.325+48.0562C416.374+47.8876+415.434+47.6875+414.467+47.5769C387.967+44.7486+361.729+42.6893+353.643+36.5165C345.578+30.349+319.335+1.53411+295.113+1.53411C270.896+1.53411+244.654+30.3385+236.583+36.5165C228.507+42.6945+202.26+44.7486+175.774+47.5769C149.279+50.4157+130.606+77.6664+140.19+107.766C145.052+123.04+156.75+150.623+167.084+174.097C206.951+185.963+265.874+189.218+327.013+166.655" opacity="1" fill="#0bb981"/>
<path d="M528.258+364.952C507.162+341.472+485.606+321.969+465.502+306.179C492.664+344.253+527.902+408.271+528.367+484.815C529.121+609.534+526.848+667.4+469.32+711.384C411.787+755.367+342.158+763.857+245.265+762.314C161.494+760.977+75.4663+749.816+20.4496+719.874C54.68+813.34+154.049+842.555+295.114+842.555C447.273+842.555+550.972+808.615+576.703+696.721C602.433+584.848+594.105+438.256+528.258+364.952" fill="#0ba181" opacity="1"/>
<path opacity="1" fill="#ffffff" d="M304.434+136.787L304.434+100.409C315.021+104.67+319.604+109.015+319.604+118.105C319.604+128.96+314.178+134.98+304.434+136.787M279.116+50.3841C279.116+40.9565+283.177+35.2209+290.473+33.1352L290.473+66.3111C282.506+62.2398+279.116+57.7683+279.116+50.3841M343.195+114.124C343.195+96.1215+335.378+81.7746+311.781+74.2904C309.141+73.4529+306.712+72.6629+304.434+71.8887L304.434+33.9674C311.667+37.6752+315.708+46.3392+316.312+49.4414L339.289+45.7756C339.289+45.7756+333.818+15.0278+304.434+10.7511L304.434+1.53411L290.473+1.53411L290.473+10.5984C260.722+13.6163+252.858+36.0372+252.858+52.9438C252.858+71.1092+262.391+86.7254+286.148+94.2096C287.641+94.6836+289.078+95.1366+290.473+95.579L290.473+135.881C281.291+131.678+277.039+119.749+275.51+114.287L250.662+117.473C250.662+117.473+254.858+155.542+290.468+158.534L290.468+176.794L304.429+176.794L304.429+158.165C336.112+154.257+343.195+130.593+343.195+114.124"/>
</g>
</svg>
